<svg width="362" height="160" viewBox="0 0 362 160" fill="none" xmlns="http://www.w3.org/2000/svg">
<rect width="362" height="160" fill="#E8E8E8"/>
<path d="M200.25 74.5C204.805 74.5 208.5 70.8047 208.5 66.25C208.5 61.6953 204.805 58 200.25 58C195.695 58 192 61.6953 192 66.25C192 70.8047 195.695 74.5 200.25 74.5Z" fill="#9AA6AC"/>
<path d="M214.688 47H147.312C144.631 47 142.5 49.1828 142.5 51.8641V108.136C142.5 110.817 144.631 113 147.312 113H214.688C217.369 113 219.5 110.817 219.5 108.136V51.8641C219.5 49.1828 217.369 47 214.688 47ZM196.967 80.9797C196.452 80.3781 195.661 79.9141 194.767 79.9141C193.891 79.9141 193.272 80.3266 192.567 80.8938L189.353 83.6094C188.683 84.0906 188.15 84.4172 187.377 84.4172C186.638 84.4172 185.967 84.1422 185.486 83.7125C185.314 83.5578 185.005 83.2656 184.747 83.0078L175.5 73.0047C174.812 72.2141 173.781 71.7156 172.63 71.7156C171.478 71.7156 170.413 72.2828 169.742 73.0563L148 99.2844V54.5109C148.172 53.3422 149.083 52.5 150.252 52.5H211.731C212.917 52.5 213.88 53.3766 213.948 54.5625L214 99.3187L196.967 80.9797Z" fill="#9AA6AC"/>
</svg>
