<svg width="30" height="40" viewBox="0 0 30 40" fill="none" xmlns="http://www.w3.org/2000/svg">
<path d="M0.5 36V4C0.5 2.067 2.067 0.5 4 0.5H17.9C18.7987 0.5 19.663 0.845712 20.3138 1.46552L28.4138 9.1798C29.1074 9.8404 29.5 10.7564 29.5 11.7143V36C29.5 37.933 27.933 39.5 26 39.5H4C2.067 39.5 0.5 37.933 0.5 36Z" fill="white" stroke="#E5E9EB"/>
<path d="M5.77156 24H7.52937V21.7415H8.72255C10.388 21.7415 11.4285 20.7543 11.4285 19.245C11.4285 17.75 10.4093 16.7273 8.77582 16.7273H5.77156V24ZM7.52937 20.3565V18.1442H8.39585C9.1842 18.1442 9.60679 18.5703 9.60679 19.245C9.60679 19.9162 9.1842 20.3565 8.39585 20.3565H7.52937ZM14.9232 24C17.1391 24 18.5134 22.6328 18.5134 20.3601C18.5134 18.0909 17.1391 16.7273 14.9197 16.7273H12.235V24H14.9232ZM13.9928 22.5014V18.2259H14.8309C16.0809 18.2259 16.752 18.794 16.752 20.3601C16.752 21.9332 16.0809 22.5014 14.8557 22.5014H13.9928ZM19.4797 24H21.2375V21.0774H24.1281V19.6463H21.2375V18.1548H24.4442V16.7273H19.4797V24Z" fill="#F76659"/>
</svg>
