<svg width="72" height="72" viewBox="0 0 72 72" fill="none" xmlns="http://www.w3.org/2000/svg">
<rect width="72" height="72" rx="36" fill="#F4F5F7"/>
<path d="M46.6667 25.3333H25.3334C23.8667 25.3333 22.6667 26.5333 22.6667 27.9999V43.9999C22.6667 45.4666 23.8667 46.6666 25.3334 46.6666H46.6667C48.1334 46.6666 49.3334 45.4666 49.3334 43.9999V27.9999C49.3334 26.5333 48.1334 25.3333 46.6667 25.3333ZM46.1334 30.9999L37.4134 36.4533C36.5467 36.9999 35.4534 36.9999 34.5867 36.4533L25.8667 30.9999C25.5334 30.7866 25.3334 30.4266 25.3334 30.0399C25.3334 29.1466 26.3067 28.6133 27.0667 29.0799L36.0001 34.6666L44.9334 29.0799C45.6934 28.6133 46.6667 29.1466 46.6667 30.0399C46.6667 30.4266 46.4667 30.7866 46.1334 30.9999Z" fill="#0E73F6"/>
</svg>
