<svg width="72" height="72" viewBox="0 0 72 72" fill="none" xmlns="http://www.w3.org/2000/svg">
<rect width="72" height="72" rx="36" fill="#F4F5F7"/>
<g clip-path="url(#clip0_4309:27823)">
<path d="M20 49.3354H38.6667V52.0021H20V49.3354Z" fill="#0E73F6"/>
<path d="M36.0001 46.6485C36.0001 46.2949 35.8596 45.9558 35.6096 45.7057C35.3595 45.4557 35.0204 45.3152 34.6667 45.3152H24.0001C23.6465 45.3152 23.3073 45.4557 23.0573 45.7057C22.8072 45.9558 22.6667 46.2949 22.6667 46.6485V48.0035H36.0001V46.6485Z" fill="#0E73F6"/>
<path d="M38.1418 35.7441C37.5205 36.4062 36.9996 37.1557 36.5955 37.9688L47.5701 48.9434C47.8202 49.1934 48.1592 49.3338 48.5128 49.3338C48.8663 49.3338 49.2054 49.1934 49.4555 48.9434L51.3411 47.0578C51.4649 46.934 51.5632 46.787 51.6302 46.6252C51.6972 46.4634 51.7317 46.29 51.7317 46.1149C51.7317 45.9398 51.6972 45.7665 51.6302 45.6047C51.5632 45.4429 51.4649 45.2959 51.3411 45.1721L40.3665 34.2004C39.552 34.601 38.8021 35.1213 38.1418 35.7441Z" fill="#0E73F6"/>
<path d="M31.5421 29.1444C30.5338 30.0802 29.3666 30.8284 28.0955 31.3541L34.9868 38.2454C35.5172 36.9764 36.2662 35.8104 37.1998 34.8004C38.2082 33.8648 39.3753 33.1164 40.6465 32.5904L33.7548 25.7004C33.2242 26.969 32.4753 28.1346 31.5421 29.1444Z" fill="#0E73F6"/>
<path d="M36.254 20.6615L34.3687 22.5468C33.8481 23.0675 33.8481 23.9115 34.3687 24.4322L41.91 31.9735C42.4306 32.4941 43.2747 32.4941 43.7954 31.9735L45.6807 30.0882C46.2013 29.5675 46.2013 28.7235 45.6807 28.2028L38.1394 20.6615C37.6187 20.1409 36.7746 20.1409 36.254 20.6615Z" fill="#0E73F6"/>
<path d="M24.9405 31.974L23.0552 33.8593C22.5346 34.38 22.5346 35.224 23.0552 35.7447L30.5965 43.286C31.1172 43.8066 31.9613 43.8066 32.4819 43.286L34.3672 41.4007C34.8878 40.8801 34.8878 40.036 34.3672 39.5153L26.8259 31.974C26.3053 31.4534 25.4612 31.4534 24.9405 31.974Z" fill="#0E73F6"/>
</g>
<defs>
<clipPath id="clip0_4309:27823">
<rect width="32" height="32" fill="white" transform="translate(20 20)"/>
</clipPath>
</defs>
</svg>
