<svg width="72" height="72" viewBox="0 0 72 72" fill="none" xmlns="http://www.w3.org/2000/svg">
<rect width="72" height="72" rx="36" fill="#F4F5F7"/>
<path d="M47 27H25C24.2044 27 23.4413 27.3161 22.8787 27.8787C22.3161 28.4413 22 29.2044 22 30V46C22 46.7956 22.3161 47.5587 22.8787 48.1213C23.4413 48.6839 24.2044 49 25 49H47C47.7956 49 48.5587 48.6839 49.1213 48.1213C49.6839 47.5587 50 46.7956 50 46V30C50 29.2044 49.6839 28.4413 49.1213 27.8787C48.5587 27.3161 47.7956 27 47 27ZM36 43C36 43.2652 35.8946 43.5196 35.7071 43.7071C35.5196 43.8946 35.2652 44 35 44H27C26.7348 44 26.4804 43.8946 26.2929 43.7071C26.1054 43.5196 26 43.2652 26 43V40.78C26.0022 39.9279 26.2337 39.0921 26.67 38.3602C27.1063 37.6283 27.7315 37.0272 28.48 36.62C28.1802 36.168 28.0085 35.6432 27.9833 35.1013C27.958 34.5595 28.0801 34.021 28.3366 33.5431C28.5931 33.0651 28.9744 32.6657 29.4399 32.3872C29.9053 32.1087 30.4376 31.9617 30.98 31.9617C31.5224 31.9617 32.0547 32.1087 32.5201 32.3872C32.9856 32.6657 33.3669 33.0651 33.6234 33.5431C33.8799 34.021 34.002 34.5595 33.9767 35.1013C33.9515 35.6432 33.7798 36.168 33.48 36.62C34.236 37.0219 34.8692 37.6207 35.3128 38.353C35.7564 39.0853 35.9939 39.9239 36 40.78V43ZM45 44H39C38.7348 44 38.4804 43.8946 38.2929 43.7071C38.1054 43.5196 38 43.2652 38 43C38 42.7348 38.1054 42.4804 38.2929 42.2929C38.4804 42.1054 38.7348 42 39 42H45C45.2652 42 45.5196 42.1054 45.7071 42.2929C45.8946 42.4804 46 42.7348 46 43C46 43.2652 45.8946 43.5196 45.7071 43.7071C45.5196 43.8946 45.2652 44 45 44ZM45 40H39C38.7348 40 38.4804 39.8946 38.2929 39.7071C38.1054 39.5196 38 39.2652 38 39C38 38.7348 38.1054 38.4804 38.2929 38.2929C38.4804 38.1054 38.7348 38 39 38H45C45.2652 38 45.5196 38.1054 45.7071 38.2929C45.8946 38.4804 46 38.7348 46 39C46 39.2652 45.8946 39.5196 45.7071 39.7071C45.5196 39.8946 45.2652 40 45 40ZM45 36H37C36.7348 36 36.4804 35.8946 36.2929 35.7071C36.1054 35.5196 36 35.2652 36 35C36 34.7348 36.1054 34.4804 36.2929 34.2929C36.4804 34.1054 36.7348 34 37 34H45C45.2652 34 45.5196 34.1054 45.7071 34.2929C45.8946 34.4804 46 34.7348 46 35C46 35.2652 45.8946 35.5196 45.7071 35.7071C45.5196 35.8946 45.2652 36 45 36ZM30 35C30 34.8022 30.0586 34.6089 30.1685 34.4444C30.2784 34.28 30.4346 34.1518 30.6173 34.0761C30.8 34.0004 31.0011 33.9806 31.1951 34.0192C31.3891 34.0578 31.5673 34.153 31.7071 34.2929C31.847 34.4327 31.9422 34.6109 31.9808 34.8049C32.0194 34.9989 31.9996 35.2 31.9239 35.3827C31.8482 35.5654 31.72 35.7216 31.5556 35.8315C31.3911 35.9414 31.1978 36 31 36C30.7348 36 30.4804 35.8946 30.2929 35.7071C30.1054 35.5196 30 35.2652 30 35ZM34 40.78V42H28V40.78C28.0026 40.0435 28.2964 39.3379 28.8172 38.8172C29.3379 38.2964 30.0435 38.0026 30.78 38H31.22C31.9565 38.0026 32.6621 38.2964 33.1828 38.8172C33.7036 39.3379 33.9974 40.0435 34 40.78ZM41 25H31C30.7348 25 30.4804 24.8946 30.2929 24.7071C30.1054 24.5196 30 24.2652 30 24C30 23.7348 30.1054 23.4804 30.2929 23.2929C30.4804 23.1054 30.7348 23 31 23H41C41.2652 23 41.5196 23.1054 41.7071 23.2929C41.8946 23.4804 42 23.7348 42 24C42 24.2652 41.8946 24.5196 41.7071 24.7071C41.5196 24.8946 41.2652 25 41 25Z" fill="#0E73F6"/>
</svg>
