<svg width="387" height="280" viewBox="0 0 387 280" fill="none" xmlns="http://www.w3.org/2000/svg">
<g clip-path="url(#clip0_4111_26303)">
<path d="M347.087 276.376C350.774 276.376 358.893 244.665 359.824 241.326C368.168 211.684 371.547 180.863 369.824 150.115C367.566 111.976 363.372 70.4881 341.585 41.0098C297.44 -18.7864 215.324 -11.2508 173.584 47.7337C161.243 65.1569 148.341 83.0229 131.751 94.5339C112.904 107.668 90.7211 105.888 70.4916 114.023C39.7557 126.383 15.8858 169.447 16.6968 209.496C17.3512 241.926 37.4332 274.734 65.0356 277.104C91.486 279.373 346.977 276.376 347.087 276.376Z" fill="#0E73F6"/>
<path opacity="0.7" d="M347.087 276.376C350.774 276.376 358.893 244.665 359.824 241.326C368.168 211.684 371.547 180.863 369.824 150.115C367.566 111.976 363.372 70.4881 341.585 41.0098C297.44 -18.7864 215.324 -11.2508 173.584 47.7337C161.243 65.1569 148.341 83.0229 131.751 94.5339C112.904 107.668 90.7211 105.888 70.4916 114.023C39.7557 126.383 15.8858 169.447 16.6968 209.496C17.3512 241.926 37.4332 274.734 65.0356 277.104C91.486 279.373 346.977 276.376 347.087 276.376Z" fill="white"/>
<path d="M306.352 32.1915C302.665 30.1992 301.043 31.8595 299.716 30.1992C298.389 28.539 303.403 24.2224 293.412 19.8965C293.412 19.8965 292.749 10.5992 279.137 10.2672C265.524 9.93512 269.183 19.5645 265.533 21.8888C261.884 24.2132 260.925 20.5606 257.239 22.8942C253.552 25.2277 255.248 29.8672 252.262 30.5313C249.276 31.1954 245.286 27.5429 241.636 29.8672C237.986 32.1915 237.949 34.1838 236.327 34.1838C234.705 34.1838 231.351 32.8556 229.36 34.1838C227.369 35.512 225.047 37.1722 225.047 37.1722H309.006C309.006 37.1722 310.001 34.1838 306.352 32.1915Z" fill="white"/>
<path d="M148.037 34.073C145.742 32.8186 144.691 33.8608 143.862 32.8186C143.032 31.7763 146.156 29.0646 139.889 26.3621C139.889 26.3621 139.475 20.5145 130.922 20.3023C122.37 20.0902 124.655 26.15 122.36 27.6165C120.065 29.0831 119.439 26.7772 117.144 28.2437C114.849 29.7103 115.891 32.6341 114.01 33.0492C112.13 33.4642 109.633 31.2045 107.338 32.6341C105.043 34.0638 105.034 35.3458 103.992 35.3458C102.951 35.3458 100.859 34.5065 99.6148 35.3458L96.896 37.1905H149.705C149.705 37.1905 150.331 35.3274 148.037 34.073Z" fill="#0E73F6"/>
<path d="M148.037 34.073C145.742 32.8186 144.691 33.8608 143.862 32.8186C143.032 31.7763 146.156 29.0646 139.889 26.3621C139.889 26.3621 139.475 20.5145 130.922 20.3023C122.37 20.0902 124.655 26.15 122.36 27.6165C120.065 29.0831 119.439 26.7772 117.144 28.2437C114.849 29.7103 115.891 32.6341 114.01 33.0492C112.13 33.4642 109.633 31.2045 107.338 32.6341C105.043 34.0638 105.034 35.3458 103.992 35.3458C102.951 35.3458 100.859 34.5065 99.6148 35.3458L96.896 37.1905H149.705C149.705 37.1905 150.331 35.3274 148.037 34.073Z" fill="#0E73F6"/>
<path opacity="0.7" d="M148.037 34.073C145.742 32.8186 144.691 33.8608 143.862 32.8186C143.032 31.7763 146.156 29.0646 139.889 26.3621C139.889 26.3621 139.475 20.5145 130.922 20.3023C122.37 20.0902 124.655 26.15 122.36 27.6165C120.065 29.0831 119.439 26.7772 117.144 28.2437C114.849 29.7103 115.891 32.6341 114.01 33.0492C112.13 33.4642 109.633 31.2045 107.338 32.6341C105.043 34.0638 105.034 35.3458 103.992 35.3458C102.951 35.3458 100.859 34.5065 99.6148 35.3458L96.896 37.1905H149.705C149.705 37.1905 150.331 35.3274 148.037 34.073Z" fill="white"/>
<path d="M386.708 273.434H23.0007V279.327H386.708V273.434Z" fill="#263238"/>
<path d="M371.962 186.466C370.118 170.38 364.091 171.081 362.211 154.995C360.331 138.909 366.312 138.208 364.432 122.123C362.552 106.037 356.561 106.738 354.672 90.652C352.783 74.5661 358.783 73.8652 356.893 57.7793C355.004 41.6935 349.023 42.3945 347.143 26.3179L346.221 29.5738C344.378 42.4867 339.106 43.1508 337.825 58.1667C336.443 74.3079 342.433 74.8244 341.069 90.9748C339.705 107.125 333.696 106.609 332.295 122.759C330.894 138.909 336.903 139.417 335.539 155.567C334.175 171.718 328.166 171.247 326.775 187.351C326.191 192.595 326.668 197.902 328.176 202.958C329.42 205.845 334.673 216.525 345.262 219.625C345.934 219.82 346.618 219.974 347.308 220.086V274.025H349.732V220.279C359.465 220.344 365.934 210.742 370.846 202.709L370.911 202.607C372.364 197.356 372.721 191.862 371.962 186.466ZM361.013 180.102L348.986 202.441V219.246H347.954V202.46L334.562 180.452C334.491 180.33 334.47 180.184 334.504 180.046C334.539 179.908 334.626 179.789 334.747 179.714C334.871 179.643 335.017 179.624 335.155 179.66C335.293 179.696 335.411 179.785 335.484 179.908L347.99 200.449V137.102C347.897 137.07 347.814 137.012 347.751 136.936L337.051 123.1C337.009 123.046 336.978 122.985 336.96 122.919C336.942 122.853 336.938 122.785 336.946 122.717C336.955 122.649 336.977 122.584 337.01 122.525C337.044 122.465 337.089 122.413 337.143 122.372C337.197 122.33 337.258 122.299 337.324 122.281C337.39 122.263 337.459 122.258 337.526 122.267C337.594 122.275 337.659 122.297 337.718 122.331C337.777 122.365 337.829 122.41 337.871 122.464L348.009 135.534V75.304L340.811 60.8969C340.758 60.7707 340.756 60.6288 340.806 60.5013C340.856 60.3738 340.954 60.2709 341.078 60.2143C341.195 60.1638 341.327 60.1584 341.448 60.1993C341.569 60.2402 341.67 60.3244 341.733 60.4357L348 72.9889V51.9962C348 51.8592 348.054 51.7278 348.151 51.6309C348.248 51.5341 348.379 51.4797 348.516 51.4797C348.653 51.4797 348.784 51.5341 348.881 51.6309C348.977 51.7278 349.032 51.8592 349.032 51.9962V72.4171L353.216 61.8285C353.241 61.7649 353.278 61.7068 353.325 61.6575C353.372 61.6083 353.429 61.5688 353.491 61.5414C353.554 61.514 353.621 61.4992 353.689 61.4978C353.757 61.4964 353.825 61.5085 353.889 61.5333C353.952 61.5581 354.01 61.5952 354.06 61.6425C354.109 61.6898 354.148 61.7463 354.176 61.8088C354.203 61.8714 354.218 61.9387 354.219 62.0069C354.221 62.0752 354.209 62.143 354.184 62.2066L349.032 75.2487V134.823L358.829 123.193C358.872 123.14 358.926 123.098 358.986 123.066C359.046 123.035 359.112 123.015 359.179 123.009C359.247 123.003 359.315 123.011 359.38 123.031C359.445 123.051 359.505 123.084 359.557 123.128C359.609 123.172 359.652 123.225 359.683 123.285C359.714 123.345 359.734 123.411 359.74 123.479C359.746 123.547 359.738 123.615 359.718 123.68C359.698 123.744 359.665 123.805 359.621 123.857L349.032 136.438V200.255L360.147 179.604C360.213 179.484 360.324 179.395 360.455 179.357C360.586 179.319 360.727 179.335 360.847 179.401C360.904 179.436 360.954 179.482 360.993 179.536C361.032 179.59 361.06 179.652 361.076 179.717C361.091 179.782 361.094 179.849 361.083 179.916C361.072 179.982 361.048 180.045 361.013 180.102Z" fill="#263238"/>
<path d="M378.745 274.006L375.87 273.084C374.386 272.632 373.897 271.285 372.423 268.592C370.948 265.899 367.004 269.939 364.045 269.939C361.087 269.939 364.534 266.793 363.059 264.1C361.584 261.407 357.64 264.552 354.193 263.648C350.746 262.744 355.668 254.664 350.746 255.116C349.825 255.199 349.152 255.928 348.636 257.053C348.166 255.928 347.548 255.209 346.719 255.116C342.23 254.664 346.719 262.754 343.576 263.648C340.433 264.543 336.848 261.407 335.503 264.1C334.157 266.793 337.291 269.939 334.581 269.939C331.871 269.939 328.296 265.899 326.95 268.592C325.604 271.285 325.153 272.632 323.807 273.084L321.19 274.006H378.745Z" fill="#263238"/>
<path d="M124.379 142.276V142.23H124.324V142.184C123.043 142.055 109.781 140.92 97.6802 147.211C103.023 140.489 105.486 131.922 104.528 123.386C101.615 94.1476 74.0407 77.4068 71.921 76.1617V76.0879H71.7919V76.2262C69.663 77.4714 42.0975 94.2121 39.1759 123.451C38.5517 129.111 39.4224 134.835 41.7012 140.053C26.1811 130.765 8.08057 132.333 6.41244 132.49H6.22812V132.545C5.40788 134.39 -4.9511 159.367 7.49073 180.507C18.6239 199.443 41.9684 194.444 48.3091 192.664C53.6361 198.263 63.3499 211 67.6631 232.759H61.6173L64.5388 273.951H78.1419L81.0634 232.814H73.9393C77.203 218.072 83.0907 204.037 91.321 191.382C97.6617 192.968 114.85 195.643 123.32 181.236C133.42 164.034 125.006 143.816 124.379 142.276ZM71.4233 142.119L57.0461 122.132C57.0156 122.091 56.9935 122.044 56.9812 121.994C56.9688 121.945 56.9664 121.893 56.9742 121.842C56.9819 121.792 56.9995 121.743 57.0261 121.699C57.0527 121.656 57.0877 121.618 57.129 121.588C57.2134 121.525 57.319 121.499 57.4226 121.515C57.5263 121.53 57.6195 121.586 57.682 121.671L71.4049 140.791V120.564L57.0276 100.586C56.9655 100.501 56.9394 100.395 56.955 100.292C56.9705 100.188 57.0265 100.095 57.1106 100.032C57.1969 99.9733 57.3026 99.9501 57.4056 99.9673C57.5086 99.9844 57.601 100.041 57.6636 100.124L71.4233 119.263V89.7479C71.4414 89.6451 71.4985 89.5531 71.5826 89.4913C71.6667 89.4294 71.7714 89.4024 71.8749 89.4159C71.9589 89.4272 72.0368 89.4659 72.0968 89.5259C72.1567 89.5858 72.1953 89.6639 72.2067 89.7479V118.239L87.1369 99.2851C87.2005 99.2049 87.2926 99.1525 87.3939 99.1387C87.4953 99.125 87.598 99.151 87.6806 99.2113C87.7593 99.2762 87.8099 99.3691 87.8219 99.4704C87.8339 99.5718 87.8064 99.6739 87.7451 99.7555L72.1882 119.577V139.869L87.1184 120.914C87.15 120.873 87.1895 120.838 87.2346 120.813C87.2798 120.787 87.3296 120.771 87.3812 120.765C87.4328 120.759 87.4851 120.763 87.535 120.778C87.5848 120.792 87.6312 120.817 87.6714 120.85C87.7114 120.881 87.7447 120.92 87.7696 120.965C87.7945 121.009 87.8103 121.058 87.8163 121.108C87.8223 121.159 87.8183 121.21 87.8045 121.259C87.7907 121.308 87.7674 121.354 87.7359 121.394L72.1882 141.132V158.251L87.1184 139.306C87.1821 139.226 87.2741 139.173 87.3755 139.16C87.4768 139.146 87.5796 139.172 87.6622 139.232C87.7408 139.297 87.7914 139.39 87.8035 139.491C87.8155 139.593 87.788 139.695 87.7267 139.776L72.1882 159.515V159.893H70.9256L57.0184 140.523C56.9563 140.439 56.9302 140.333 56.9457 140.23C56.9613 140.126 57.0172 140.033 57.1014 139.97C57.1877 139.911 57.2933 139.888 57.3963 139.905C57.4994 139.922 57.5918 139.979 57.6543 140.062L71.4049 159.238V142.082L71.4233 142.119ZM48.5395 190.902L47.1295 188.965L26.8539 183.321C26.778 183.29 26.7158 183.233 26.6794 183.16C26.643 183.087 26.6349 183.003 26.6566 182.924C26.6783 182.845 26.7283 182.777 26.797 182.733C26.8657 182.689 26.9483 182.671 27.029 182.684L46.5028 188.108L38.0515 176.541L17.8221 170.897C17.738 170.873 17.6667 170.817 17.6236 170.741C17.5804 170.665 17.569 170.575 17.5917 170.491C17.6153 170.409 17.6701 170.34 17.7443 170.298C17.8185 170.257 17.9061 170.247 17.9879 170.269L37.4249 175.693L27.4345 162.005L7.15895 156.36C7.11923 156.351 7.08186 156.333 7.04906 156.309C7.01627 156.284 6.98873 156.254 6.96808 156.218C6.94744 156.183 6.93411 156.144 6.9289 156.103C6.92369 156.063 6.9267 156.021 6.93776 155.982C6.94847 155.941 6.96724 155.902 6.99301 155.868C7.01877 155.834 7.05101 155.806 7.08786 155.784C7.12471 155.763 7.16544 155.749 7.2077 155.743C7.24996 155.738 7.2929 155.74 7.33406 155.752L26.771 161.175L12.7624 141.935C12.7115 141.864 12.6907 141.775 12.7045 141.689C12.7183 141.603 12.7656 141.525 12.8361 141.473C12.9028 141.424 12.986 141.402 13.0684 141.412C13.1508 141.423 13.226 141.464 13.2785 141.529L27.8216 161.433L27.6834 141.713C27.6755 141.67 27.6765 141.626 27.6863 141.583C27.6961 141.54 27.7145 141.5 27.7404 141.465C27.7662 141.429 27.799 141.4 27.8368 141.377C27.8745 141.355 27.9164 141.341 27.9598 141.335C28.0023 141.327 28.0458 141.328 28.088 141.337C28.1302 141.346 28.17 141.364 28.2053 141.389C28.2405 141.414 28.2704 141.446 28.2931 141.482C28.3159 141.519 28.331 141.56 28.3377 141.603C28.3471 141.639 28.3471 141.677 28.3377 141.713L28.5312 162.3L38.5124 175.979L38.3741 156.25C38.3662 156.206 38.3673 156.162 38.3771 156.119C38.3869 156.077 38.4053 156.036 38.4311 156.001C38.457 155.966 38.4898 155.936 38.5275 155.914C38.5653 155.891 38.6071 155.877 38.6506 155.871C38.693 155.864 38.7366 155.864 38.7788 155.873C38.8209 155.883 38.8608 155.9 38.896 155.925C38.9313 155.95 38.9612 155.982 38.9839 156.019C39.0066 156.055 39.0218 156.096 39.0285 156.139C39.0378 156.175 39.0378 156.213 39.0285 156.25L39.1759 176.855L47.4705 188.384L47.323 168.655C47.3276 168.57 47.3643 168.489 47.4258 168.429C47.4873 168.369 47.5691 168.335 47.6548 168.332C47.7403 168.332 47.8224 168.366 47.8829 168.427C47.9434 168.488 47.9774 168.57 47.9774 168.655L48.1248 189.251L49.3321 190.902H48.5395ZM50.8436 190.902C53.7928 186.411 62.3085 171.662 57.2212 157.467C61.1756 160.079 65.4071 162.244 69.8381 163.924V227.972C65.1655 208.344 56.3641 196.612 51.0095 190.902H50.8436ZM72.9624 224.024V164.219C77.1798 162.681 81.2235 160.702 85.0264 158.316C76.9069 171.339 85.948 186.383 88.3995 189.934C81.5772 200.46 76.3735 211.951 72.9624 224.024ZM123.578 161.59L107.164 166.202L99.0534 177.27L114.822 172.861C114.857 172.851 114.893 172.849 114.928 172.853C114.964 172.858 114.998 172.87 115.029 172.888C115.06 172.906 115.087 172.93 115.109 172.959C115.13 172.987 115.145 173.02 115.154 173.055C115.171 173.122 115.161 173.193 115.127 173.254C115.093 173.314 115.036 173.358 114.97 173.378L98.5465 177.989L91.6989 187.37L107.468 182.97C107.535 182.953 107.606 182.963 107.666 182.997C107.726 183.032 107.771 183.088 107.79 183.155C107.808 183.223 107.798 183.296 107.764 183.357C107.73 183.419 107.673 183.465 107.606 183.487L91.192 188.098L90.3257 189.279C90.169 189.187 90.0123 189.104 89.8741 189.002L90.3625 188.329L90.4823 171.616C90.4846 171.546 90.5135 171.479 90.5632 171.429C90.6128 171.38 90.6795 171.351 90.7496 171.349C90.8205 171.349 90.8885 171.377 90.9386 171.427C90.9887 171.477 91.0169 171.545 91.0169 171.616L90.9063 187.619L97.7539 178.248L97.8737 161.535C97.8737 161.464 97.9019 161.396 97.952 161.346C98.0021 161.295 98.0701 161.267 98.141 161.267C98.2111 161.269 98.2778 161.298 98.3274 161.348C98.3771 161.398 98.4059 161.464 98.4082 161.535L98.2884 177.547L106.389 166.478L106.509 149.756C106.521 149.695 106.553 149.64 106.601 149.6C106.649 149.56 106.71 149.538 106.772 149.538C106.834 149.538 106.895 149.56 106.943 149.6C106.991 149.64 107.023 149.695 107.035 149.756L106.869 165.694L118.665 149.544C118.708 149.489 118.77 149.452 118.838 149.441C118.907 149.431 118.977 149.448 119.034 149.489C119.062 149.508 119.086 149.533 119.104 149.561C119.122 149.59 119.135 149.622 119.141 149.655C119.147 149.689 119.146 149.723 119.139 149.756C119.132 149.789 119.118 149.821 119.099 149.848L107.698 165.464L123.458 161.083C123.525 161.066 123.596 161.075 123.656 161.11C123.717 161.144 123.761 161.201 123.78 161.267C123.801 161.33 123.796 161.398 123.767 161.456C123.737 161.515 123.686 161.56 123.624 161.581L123.578 161.59Z" fill="#263238"/>
<path d="M280.962 85.901L278.519 78.5775L273.376 71.5308L270.427 79.7489L277.164 88.6127L280.962 85.901Z" fill="white"/>
<path d="M277.072 89.2493L269.911 79.8321L273.229 70.5532L278.962 78.4393L281.505 86.0857L277.072 89.2493ZM270.916 79.6753L277.238 87.9765L280.39 85.7259L278.077 78.7991L273.469 72.4994L270.916 79.6753Z" fill="#263238"/>
<path d="M317.365 108.665L296.869 109.384C296.112 109.414 295.362 109.225 294.708 108.841C294.055 108.457 293.525 107.893 293.182 107.217L280.962 85.9014C280.962 85.9014 277.441 87.8014 277.165 88.6131C276.888 89.4247 285.33 109.919 288.952 119.051C289.255 119.82 289.792 120.475 290.486 120.923C291.18 121.371 291.998 121.591 292.823 121.55L315.743 120.628" fill="#0E73F6"/>
<path d="M292.657 122.029C291.771 122.034 290.904 121.772 290.169 121.279C289.433 120.786 288.861 120.084 288.528 119.262C287.791 117.418 286.86 115.075 285.837 112.538C277.846 92.5879 276.556 89.0369 276.731 88.5019C277.026 87.5796 279.634 86.1315 280.74 85.532L281.137 85.3198L293.578 107.023C293.883 107.624 294.353 108.125 294.932 108.468C295.512 108.811 296.177 108.982 296.85 108.96L317.347 108.24V109.163L296.85 109.882C296.006 109.909 295.171 109.697 294.442 109.269C293.713 108.841 293.12 108.216 292.73 107.465L280.75 86.565C279.599 87.1373 278.537 87.8736 277.598 88.751C277.846 90.1991 283.127 103.407 286.657 112.197C287.671 114.734 288.611 117.067 289.348 118.921C289.615 119.602 290.089 120.181 290.702 120.578C291.315 120.975 292.038 121.17 292.767 121.135L315.688 120.212V121.135L292.767 122.057L292.657 122.029Z" fill="#263238"/>
<path d="M282.341 89.3982L279.131 90.73L279.396 91.369L282.605 90.0372L282.341 89.3982Z" fill="#263238"/>
<path d="M290.067 125.626H96.2512V272.253H290.067V125.626Z" fill="#0E73F6"/>
<path d="M290.067 272.687H96.2508C96.1286 272.687 96.0114 272.638 95.925 272.552C95.8386 272.465 95.79 272.348 95.79 272.226V125.572C95.79 125.449 95.8386 125.332 95.925 125.245C96.0114 125.159 96.1286 125.11 96.2508 125.11H290.067C290.188 125.115 290.302 125.165 290.388 125.25C290.473 125.336 290.523 125.451 290.528 125.572V272.226C290.528 272.348 290.479 272.465 290.393 272.552C290.306 272.638 290.189 272.687 290.067 272.687ZM96.7301 271.764H289.624V126.033H96.7301V271.764Z" fill="#263238"/>
<path d="M96.2512 125.627L182.201 41.6188C184.816 39.4018 188.125 38.1729 191.552 38.146C194.979 38.119 198.307 39.2957 200.956 41.4712L290.067 125.627H96.2512Z" fill="#0E73F6"/>
<path d="M290.065 126.088H96.2491C96.1578 126.089 96.0685 126.062 95.9928 126.011C95.9171 125.96 95.8587 125.887 95.8252 125.802C95.7907 125.717 95.7819 125.623 95.7999 125.533C95.8179 125.443 95.8619 125.36 95.9265 125.295L181.877 41.296C184.571 39.0025 187.983 37.7278 191.52 37.694C195.057 37.6603 198.493 38.8698 201.231 41.1116L290.36 125.295C290.428 125.358 290.476 125.44 290.495 125.531C290.515 125.622 290.507 125.716 290.471 125.802C290.437 125.883 290.382 125.954 290.31 126.004C290.238 126.055 290.153 126.084 290.065 126.088ZM97.3827 125.166H288.904L200.641 41.8033C198.075 39.7028 194.855 38.5698 191.54 38.6019C188.226 38.6339 185.028 39.8289 182.503 41.9786L97.3827 125.166Z" fill="#263238"/>
<path d="M273.994 55.6387H112.324V192.184H273.994V55.6387Z" fill="white"/>
<path d="M273.994 192.636H112.324C112.202 192.636 112.084 192.588 111.998 192.501C111.912 192.415 111.863 192.297 111.863 192.175V55.6667C111.863 55.5444 111.912 55.4271 111.998 55.3406C112.084 55.2541 112.202 55.2056 112.324 55.2056H273.994C274.116 55.2056 274.233 55.2541 274.32 55.3406C274.406 55.4271 274.455 55.5444 274.455 55.6667V192.175C274.455 192.297 274.406 192.415 274.32 192.501C274.233 192.588 274.116 192.636 273.994 192.636ZM112.785 191.714H273.533V56.1279H112.785V191.714Z" fill="#263238"/>
<path d="M266.907 183.874H119.448C119.355 183.874 119.266 183.837 119.2 183.771C119.135 183.705 119.098 183.616 119.098 183.523V64.2905C119.1 64.1991 119.138 64.1123 119.203 64.0486C119.269 63.9848 119.357 63.9492 119.448 63.9492H266.907C266.996 63.9537 267.08 63.9911 267.143 64.0541C267.206 64.1172 267.243 64.2014 267.248 64.2905V183.523C267.248 183.614 267.212 183.702 267.148 183.768C267.085 183.833 266.998 183.871 266.907 183.874ZM119.77 183.219H266.556V64.641H119.77V183.219Z" fill="#0E73F6"/>
<path d="M262.197 180.635H124.121C123.876 180.635 123.642 180.538 123.469 180.365C123.296 180.192 123.199 179.958 123.199 179.713V68.1084C123.199 67.8638 123.296 67.6292 123.469 67.4562C123.642 67.2832 123.876 67.186 124.121 67.186H262.197C262.442 67.186 262.676 67.2832 262.849 67.4562C263.022 67.6292 263.119 67.8638 263.119 68.1084V179.713C263.119 179.958 263.022 180.192 262.849 180.365C262.676 180.538 262.442 180.635 262.197 180.635ZM125.042 178.791H261.276V69.0307H125.042V178.791Z" fill="#0E73F6"/>
<path d="M187.795 125.461C188.477 126.54 189.187 127.084 189.924 127.084V127.167C189.445 127.167 188.818 127.592 188.081 128.44C188.081 128.671 187.998 128.781 187.823 128.781C187.823 128.348 187.546 127.979 186.975 127.675C186.418 127.41 185.802 127.292 185.187 127.333H166.192L164.404 128.016L164.146 128.274H164.008C163.86 128.18 163.733 128.057 163.633 127.912C163.533 127.768 163.463 127.605 163.427 127.433C163.391 127.261 163.39 127.084 163.423 126.912C163.456 126.739 163.524 126.575 163.621 126.429C163.721 126.274 163.853 126.142 164.008 126.042H164.174C164.719 126.441 165.351 126.703 166.017 126.808L166.192 126.983H185.758C187.113 126.743 187.795 126.273 187.795 125.461ZM190.864 124.871C191.611 124.871 192.21 125.406 192.643 126.485V126.66H192.394C191.196 126.273 190.606 125.821 190.606 125.295V125.12L190.864 124.871ZM192.302 127.638H192.477L192.643 127.813C192.643 128.283 192.164 128.818 191.196 129.427H191.113C190.818 129.427 190.643 129.344 190.606 129.178V128.837C191.009 128.252 191.612 127.835 192.302 127.665V127.638ZM195.537 124.871L195.712 125.12V125.295C195.712 125.692 195.196 126.143 194.182 126.66H193.666V126.485C193.666 126.014 194.117 125.507 195.03 124.954L195.537 124.871ZM193.841 127.638C194.246 127.663 194.632 127.815 194.947 128.071C195.454 128.366 195.712 128.68 195.712 128.994V129.169C195.656 129.335 195.481 129.418 195.196 129.418H195.113C194.586 129.148 194.145 128.736 193.841 128.228L193.666 127.97V127.804L193.841 127.638ZM198.513 125.424C198.513 126.236 199.195 126.743 200.559 126.964H220.125C220.493 126.69 220.938 126.538 221.397 126.531L222.162 126.024H222.337C222.52 126.145 222.67 126.309 222.773 126.502C222.877 126.695 222.931 126.911 222.931 127.13C222.931 127.35 222.877 127.565 222.773 127.758C222.67 127.952 222.52 128.116 222.337 128.237H222.162C221.494 127.784 220.742 127.471 219.95 127.315H201.149C199.767 127.315 198.882 127.721 198.513 128.514V128.763C197.804 127.841 197.214 127.315 196.726 127.315C196.726 127.204 196.615 127.149 196.394 127.149C196.394 127.038 196.587 126.983 196.984 126.983C197.651 126.681 198.171 126.127 198.431 125.442L198.513 125.424Z" fill="#0E73F6"/>
<path d="M96.2512 126.466L193.159 199.774L290.058 126.466V273.083H96.2512V126.466Z" fill="#0E73F6"/>
<path d="M290.067 273.544H96.2508C96.1286 273.544 96.0114 273.496 95.925 273.409C95.8386 273.323 95.79 273.205 95.79 273.083V126.429C95.7951 126.345 95.8214 126.264 95.8663 126.193C95.9112 126.122 95.9734 126.063 96.047 126.023C96.1206 125.982 96.2032 125.961 96.2872 125.961C96.3712 125.961 96.4538 125.982 96.5273 126.023L193.159 199.12L289.781 126.032C289.877 125.957 289.998 125.922 290.119 125.936C290.24 125.95 290.35 126.011 290.426 126.106C290.491 126.188 290.526 126.288 290.528 126.392V273.046C290.534 273.107 290.528 273.168 290.511 273.227C290.494 273.285 290.465 273.339 290.426 273.386C290.388 273.434 290.34 273.473 290.286 273.501C290.233 273.53 290.174 273.548 290.113 273.554L290.067 273.544ZM96.7117 272.622H289.606V127.388L193.435 200.143C193.355 200.202 193.258 200.233 193.159 200.233C193.06 200.233 192.963 200.202 192.882 200.143L96.7301 127.388L96.7117 272.622Z" fill="#263238"/>
<path d="M96.2512 273.083L179.685 189.583H206.624L290.058 273.083H96.2512Z" fill="#0E73F6"/>
<path d="M290.067 273.544H96.2508C96.1611 273.544 96.0735 273.517 95.9984 273.468C95.9233 273.419 95.8638 273.349 95.8268 273.268C95.7898 273.183 95.7797 273.089 95.7978 272.998C95.816 272.907 95.8615 272.824 95.9282 272.76L179.362 189.26C179.403 189.216 179.453 189.18 179.509 189.157C179.564 189.133 179.624 189.121 179.685 189.122H206.624C206.684 189.121 206.744 189.133 206.8 189.157C206.855 189.18 206.905 189.216 206.946 189.26L290.389 272.76C290.452 272.827 290.495 272.91 290.513 273C290.531 273.089 290.523 273.182 290.491 273.268C290.454 273.349 290.394 273.419 290.319 273.468C290.244 273.517 290.156 273.544 290.067 273.544ZM97.3659 272.622H288.952L206.402 190.044H179.878L97.3659 272.622Z" fill="#263238"/>
<path d="M311.928 98.4171L311.661 106.193L320.923 104.717L321.245 91.1582L311.928 98.4171Z" fill="white"/>
<path d="M311.181 106.737L311.467 98.1868L321.734 90.1992L321.374 105.114L311.181 106.737ZM312.379 98.648L312.14 105.649L320.434 104.32L320.72 92.1177L312.379 98.648Z" fill="#263238"/>
<path d="M304.094 271.22C303.901 270.678 303.744 270.123 303.624 269.56L303.099 265.658L296.279 264.57L290.592 268.619L286.979 270.611H286.906C286.017 270.971 285.167 271.423 284.371 271.958C283.772 272.484 284.067 273.074 285.864 273.074H303.725C303.725 273.074 304.592 272.567 304.094 271.22Z" fill="white"/>
<path d="M303.818 273.545H285.837C284.593 273.545 283.855 273.268 283.653 272.724C283.589 272.522 283.592 272.305 283.662 272.106C283.732 271.906 283.864 271.735 284.04 271.617C284.874 271.048 285.767 270.572 286.703 270.196H286.805L290.344 268.25L296.141 264.118L303.514 265.299L304.076 269.532C304.198 270.06 304.349 270.58 304.527 271.091C304.741 271.498 304.8 271.968 304.696 272.415C304.591 272.863 304.328 273.257 303.956 273.526L303.818 273.545ZM284.528 272.447C284.95 272.584 285.394 272.643 285.837 272.622H303.541C303.679 272.484 303.919 272.115 303.643 271.386C303.439 270.823 303.273 270.247 303.145 269.662L302.666 266.064L296.371 265.05L290.841 268.997L287.035 271.064C286.202 271.395 285.405 271.813 284.657 272.309C284.608 272.346 284.567 272.393 284.537 272.447H284.528Z" fill="#263238"/>
<path d="M304.205 271.764H284.648C284.539 271.83 284.437 271.908 284.344 271.995C283.745 272.521 284.04 273.111 285.837 273.111H303.698C303.904 272.96 304.062 272.753 304.153 272.513C304.243 272.274 304.261 272.014 304.205 271.764Z" fill="white"/>
<path d="M303.818 273.544H285.837C284.593 273.544 283.855 273.268 283.653 272.724C283.589 272.522 283.592 272.305 283.662 272.106C283.732 271.906 283.864 271.734 284.04 271.617C284.152 271.52 284.272 271.434 284.399 271.358L284.51 271.275H304.601L304.665 271.672C304.741 272.018 304.711 272.379 304.58 272.708C304.448 273.036 304.221 273.318 303.928 273.517L303.818 273.544ZM284.528 272.447C284.95 272.584 285.394 272.643 285.837 272.622H303.532C303.643 272.505 303.717 272.357 303.744 272.198H284.786L284.648 272.308C284.599 272.346 284.558 272.393 284.528 272.447Z" fill="#263238"/>
<path d="M334.185 271.22C333.993 270.676 333.833 270.122 333.706 269.56L333.189 265.658L326.369 264.57L320.683 268.619L317.07 270.611H316.997C316.105 270.971 315.252 271.423 314.453 271.958C313.854 272.484 314.158 273.074 315.946 273.074H333.807C333.807 273.074 334.701 272.567 334.185 271.22Z" fill="white"/>
<path d="M333.936 273.545H315.946C314.702 273.545 313.974 273.268 313.762 272.724C313.698 272.522 313.701 272.305 313.771 272.106C313.841 271.906 313.973 271.735 314.149 271.617C314.982 271.048 315.876 270.572 316.812 270.196H316.923L320.453 268.25L326.259 264.118L333.632 265.299L334.194 269.532C334.313 270.06 334.461 270.58 334.636 271.091C334.854 271.497 334.916 271.968 334.81 272.417C334.705 272.865 334.44 273.26 334.065 273.526L333.936 273.545ZM314.646 272.447C315.064 272.588 315.505 272.648 315.946 272.622H333.65C333.788 272.484 334.037 272.115 333.751 271.386C333.556 270.821 333.393 270.245 333.263 269.662L332.775 266.064L326.48 265.05L320.95 268.997L317.144 271.064C316.31 271.395 315.514 271.813 314.766 272.309C314.719 272.348 314.679 272.395 314.646 272.447Z" fill="#263238"/>
<path d="M334.323 271.764H314.766C314.656 271.833 314.551 271.91 314.453 271.995C313.854 272.521 314.158 273.111 315.946 273.111H333.807C334.014 272.961 334.174 272.754 334.265 272.514C334.357 272.275 334.377 272.015 334.323 271.764Z" fill="white"/>
<path d="M333.936 273.544H315.946C314.702 273.544 313.974 273.268 313.762 272.724C313.698 272.522 313.701 272.305 313.771 272.106C313.841 271.906 313.973 271.734 314.149 271.617C314.261 271.52 314.381 271.434 314.508 271.358L314.628 271.275H334.719L334.774 271.672C334.852 272.017 334.824 272.378 334.694 272.707C334.565 273.036 334.339 273.318 334.046 273.517L333.936 273.544ZM314.646 272.447C315.064 272.588 315.505 272.648 315.946 272.622H333.65C333.76 272.504 333.834 272.357 333.862 272.198H314.904L314.757 272.308C314.71 272.348 314.67 272.395 314.637 272.447H314.646Z" fill="#263238"/>
<path d="M301.587 156.959L300.767 167.105C300.767 167.105 295.099 207.468 295.366 212.107C295.634 216.746 296.288 264.616 296.288 264.616L303.108 265.705L310.776 212.605L321.54 158.647L301.587 156.959Z" fill="#0E73F6"/>
<path d="M303.467 266.23L295.799 264.957V264.57C295.799 264.09 295.191 216.672 294.924 212.088C294.657 207.504 300.094 168.645 300.325 166.994L301.172 156.461L322.066 158.177L321.964 158.684L311.19 212.651L303.467 266.23ZM296.721 264.173L302.693 265.096L310.287 212.457L320.96 158.961L302.02 157.393L301.237 167.031C301.182 167.465 295.578 207.43 295.836 211.968C296.094 216.506 296.647 259.598 296.721 264.173Z" fill="#263238"/>
<path d="M301.043 263.565L300.407 263.463C300.407 263.316 303.356 248.291 303.356 240.201C303.356 232.112 303.356 224.383 305.329 216.783C307.273 209.33 309.937 193.964 309.937 193.807L310.619 193.927C310.619 194.084 307.965 209.469 306.011 216.986C304.057 224.503 304.094 232.103 304.094 240.229C304.094 248.355 301.071 263.463 301.043 263.565Z" fill="#263238"/>
<path d="M315.43 154.468C319.937 152.116 324.775 150.539 326.139 153.684C328.904 159.966 325.595 169.521 325.595 169.521L328.056 213.554L332.95 265.686L325.254 265.612C325.254 265.612 315.31 220.749 313.679 218.019C312.047 215.288 309.458 176.891 309.458 176.891L304.297 172.15" fill="#0E73F6"/>
<path d="M333.494 266.147L324.923 266.064L324.84 265.704C321.411 250.218 314.582 220.361 313.319 218.249C311.697 215.547 309.366 181.835 309.052 177.103L303.983 172.491L304.601 171.809L309.946 176.651V176.836C310.979 192.23 312.942 215.823 314.103 217.76C315.697 220.426 324.637 260.585 325.651 265.132L332.471 265.197L327.623 213.545L325.116 169.383V169.291C325.116 169.198 328.296 159.827 325.669 153.795C325.551 153.493 325.367 153.22 325.131 152.997C324.896 152.774 324.614 152.605 324.305 152.504C322.628 151.904 319.614 152.707 315.596 154.801L315.172 153.98C319.476 151.729 322.655 150.945 324.618 151.637C325.045 151.78 325.436 152.014 325.764 152.323C326.092 152.632 326.349 153.008 326.517 153.426C329.171 159.551 326.36 168.47 326.01 169.503L328.508 213.453L333.494 266.147Z" fill="#263238"/>
<path d="M329.586 263.205C329.586 263.02 327.586 244.342 324.664 231.042C322.452 220.961 322.618 220.352 322.821 219.439C322.942 219.02 322.995 218.584 322.978 218.148V216.303C323.033 213.167 323.116 208.426 322.314 205.779C321.088 201.674 320.471 195.817 320.305 187.867H320.996C321.116 195.753 321.77 201.545 322.978 205.594C323.807 208.361 323.724 213.148 323.669 216.321V218.166C323.685 218.664 323.626 219.161 323.494 219.642C323.291 220.398 323.125 220.988 325.337 230.913C328.268 244.25 330.249 262.965 330.277 263.195L329.586 263.205Z" fill="#263238"/>
<path d="M321.043 182.767H320.351V180.35C320.628 167.299 320.434 165.851 320.351 165.694L320.665 165.574L320.351 165.417L320.748 165.233C321.098 165.316 321.329 165.371 321.006 180.369C321.061 181.19 321.052 181.992 321.043 182.767Z" fill="#263238"/>
<path d="M305.937 172.694C305.887 172.693 305.837 172.682 305.791 172.661C305.746 172.641 305.704 172.611 305.67 172.574L304.075 170.73C304.034 170.686 304.006 170.632 303.995 170.573C303.983 170.514 303.989 170.453 304.011 170.398L305.062 167.234L305.274 162.622C305.275 162.576 305.285 162.532 305.304 162.49C305.323 162.448 305.35 162.411 305.383 162.38C305.417 162.349 305.456 162.325 305.499 162.31C305.542 162.294 305.587 162.288 305.633 162.29C305.723 162.295 305.807 162.334 305.869 162.399C305.931 162.464 305.965 162.551 305.965 162.641L305.744 167.252C305.753 167.286 305.753 167.321 305.744 167.354L304.739 170.37L306.214 172.095C306.277 172.158 306.312 172.245 306.312 172.334C306.312 172.424 306.277 172.51 306.214 172.574C306.179 172.614 306.137 172.645 306.089 172.665C306.041 172.686 305.989 172.696 305.937 172.694Z" fill="#263238"/>
<path d="M310.61 167.769C305.458 167.769 303.366 165.74 303.237 165.639C303.206 165.608 303.181 165.571 303.165 165.531C303.148 165.49 303.139 165.447 303.139 165.403C303.139 165.36 303.148 165.317 303.165 165.276C303.181 165.236 303.206 165.199 303.237 165.168C303.301 165.105 303.387 165.07 303.476 165.07C303.566 165.07 303.652 165.105 303.716 165.168C303.716 165.168 306.389 167.714 313.052 166.939C313.096 166.933 313.14 166.935 313.183 166.946C313.226 166.957 313.266 166.976 313.301 167.003C313.336 167.029 313.366 167.063 313.388 167.101C313.41 167.139 313.424 167.181 313.43 167.225C313.443 167.314 313.421 167.405 313.367 167.478C313.314 167.55 313.233 167.599 313.144 167.613C312.303 167.716 311.457 167.768 310.61 167.769Z" fill="#263238"/>
<path d="M319.909 163.093C325.107 162.078 325.439 160.612 327.217 159.404C327.235 157.442 326.869 155.496 326.139 153.676C324.775 150.53 319.937 152.108 315.43 154.46L313.31 157.919L301.633 156.996L301.265 161.608C307.267 163.609 313.666 164.119 319.909 163.093Z" fill="#263238"/>
<path d="M302.748 160.132L302.638 161.958L305.605 162.641L305.826 160.252L302.748 160.132Z" fill="white"/>
<path d="M305.937 163.074L302.306 162.235L302.453 159.772L306.232 159.92L305.937 163.074ZM303.025 161.691L305.32 162.217L305.476 160.584L303.108 160.492L303.025 161.691Z" fill="#263238"/>
<path d="M323.439 162.834L322.932 158.306L324.443 157.798L325.199 161.829" fill="#0E73F6"/>
<path d="M322.978 162.89L322.434 157.983L324.794 157.189L325.651 161.746L324.748 161.912L324.084 158.407L323.43 158.619L323.89 162.788L322.978 162.89Z" fill="#263238"/>
<path d="M311.854 164.356L310.84 159.062H313.356L314.37 163.6" fill="#0E73F6"/>
<path d="M311.393 164.439L310.287 158.601H313.734L314.822 163.498L313.918 163.692L312.988 159.523H311.402L312.306 164.264L311.393 164.439Z" fill="#263238"/>
<path d="M309.071 106.23C309.071 106.23 304.177 111.764 302.223 114.061C300.269 116.357 300.269 140.809 300.269 144.415C300.269 148.022 298.315 157.78 301.578 159.736C304.84 161.691 324.729 161.045 326.683 157.78C328.637 154.515 329.936 115.352 329.613 111.782C329.291 108.213 326.342 105.326 324.084 104.274C321.826 103.223 309.071 106.23 309.071 106.23Z" fill="white"/>
<path d="M310.434 161.294C306.518 161.294 302.73 160.962 301.338 160.132C298.573 158.481 299.163 152.283 299.578 147.754C299.698 146.398 299.808 145.236 299.808 144.415C299.808 133.863 300.075 115.822 301.873 113.765C303.808 111.505 308.674 105.981 308.729 105.925L308.822 105.814H308.969C310.287 105.501 321.872 102.798 324.259 103.887C326.904 105.104 329.742 108.194 330.074 111.764C330.406 115.333 329.088 154.699 327.079 158.038C325.715 160.326 317.927 161.008 314.646 161.202C313.31 161.257 311.854 161.294 310.434 161.294ZM309.319 106.663C308.619 107.456 304.352 112.308 302.573 114.383C301.439 115.711 300.73 127.222 300.73 144.433C300.73 145.3 300.619 146.481 300.499 147.855C300.131 151.895 299.578 158.001 301.817 159.357C303.246 160.215 308.739 160.612 314.591 160.279C320.83 159.92 325.53 158.831 326.286 157.568C328.129 154.45 329.475 115.389 329.152 111.847C328.83 108.305 325.816 105.612 323.872 104.717C322.332 103.979 314.379 105.464 309.319 106.663Z" fill="#263238"/>
<path d="M324.066 104.274C323.796 104.162 323.509 104.099 323.218 104.089L321.808 104.827C321.808 104.827 325.715 107.853 326.416 112.474C327.072 116.838 327.013 121.281 326.241 125.626C325.531 130.432 314.158 125.626 316.296 127.406C318.435 129.187 326.434 132.212 326.775 133.808C327.116 135.403 322.868 138.078 321.245 138.253C319.623 138.429 322.315 141.989 323.918 145.014C325.522 148.039 324.978 152.301 321.245 155.16C317.513 158.019 308.97 159.458 305.265 159.606C304.057 159.652 303.302 159.919 303.09 160.279C308.776 161.543 324.904 160.722 326.655 157.798C328.618 154.533 329.909 115.37 329.586 111.8C329.264 108.231 326.342 105.325 324.066 104.274Z" fill="#0E73F6"/>
<path d="M319.089 131.069C313.835 129.427 309.246 124.824 309.246 124.824C310.406 130.271 313.571 135.081 318.112 138.3" fill="white"/>
<path d="M318.112 138.641C318.039 138.644 317.967 138.621 317.909 138.577C313.311 135.289 310.101 130.407 308.905 124.88C308.892 124.808 308.903 124.734 308.936 124.669C308.969 124.604 309.023 124.551 309.089 124.52C309.152 124.485 309.225 124.471 309.297 124.481C309.368 124.491 309.434 124.524 309.485 124.575C309.485 124.622 314.093 129.187 319.199 130.737C319.285 130.766 319.356 130.828 319.397 130.909C319.438 130.99 319.447 131.083 319.42 131.17C319.409 131.214 319.388 131.255 319.36 131.29C319.333 131.326 319.298 131.355 319.258 131.377C319.218 131.399 319.175 131.412 319.13 131.416C319.085 131.42 319.039 131.415 318.996 131.401C315.609 130.181 312.499 128.3 309.845 125.867C311.186 130.771 314.174 135.064 318.305 138.023C318.342 138.048 318.374 138.08 318.398 138.118C318.422 138.155 318.439 138.197 318.446 138.241C318.454 138.285 318.453 138.33 318.443 138.373C318.433 138.417 318.414 138.458 318.388 138.494C318.358 138.539 318.317 138.576 318.268 138.602C318.22 138.628 318.166 138.641 318.112 138.641Z" fill="#263238"/>
<path d="M323.089 100.686L307.439 104.274L306.462 108.84L324.065 104.274L323.089 100.686Z" fill="white"/>
<path d="M305.854 109.476L307.052 103.887L323.448 100.133L324.664 104.606L305.854 109.476ZM307.826 104.662L307.071 108.213L323.503 103.942L322.766 101.23L307.826 104.662Z" fill="#263238"/>
<path d="M277.985 79.9147L273.773 77.4796C273.773 77.4796 272.142 77.2675 272.851 79.103L277.054 82.3497" fill="white"/>
<path d="M277.044 82.8298C276.944 82.8319 276.846 82.7993 276.768 82.7375L272.556 79.4816C272.489 79.4325 272.438 79.3653 272.408 79.2879C272.263 79.015 272.192 78.7088 272.202 78.3997C272.211 78.0906 272.302 77.7895 272.464 77.5262C272.637 77.3433 272.85 77.2038 273.087 77.1189C273.324 77.0339 273.578 77.006 273.828 77.0374C273.889 77.0459 273.948 77.0646 274.003 77.0927L278.215 79.537C278.273 79.5592 278.327 79.5933 278.372 79.6372C278.417 79.681 278.453 79.7336 278.477 79.7917C278.501 79.8499 278.513 79.9124 278.512 79.9753C278.511 80.0383 278.498 80.1003 278.472 80.1577C278.446 80.2151 278.409 80.2667 278.362 80.3091C278.316 80.3515 278.261 80.3839 278.201 80.4044C278.142 80.4249 278.079 80.433 278.016 80.4281C277.954 80.4233 277.892 80.4057 277.837 80.3763L277.754 80.3302L273.68 77.9505C273.515 77.9345 273.349 77.9841 273.219 78.0889C273.127 78.2088 273.146 78.4855 273.266 78.836L277.367 82.0089C277.415 82.0444 277.455 82.0891 277.486 82.1404C277.517 82.1917 277.537 82.2486 277.546 82.3078C277.554 82.367 277.551 82.4273 277.536 82.4853C277.521 82.5432 277.495 82.5976 277.459 82.6453C277.41 82.7073 277.346 82.7565 277.274 82.7887C277.202 82.8208 277.123 82.8349 277.044 82.8298Z" fill="#263238"/>
<path d="M277.367 86.2702C277.174 85.766 276.882 85.3052 276.51 84.9144L275.727 84.0658L271.45 78.7623C271.45 78.7623 270.123 77.8399 270.418 79.7953L273.072 84.9513L268.354 80.5332C268.354 80.5332 267.432 79.7953 267.432 80.8191C267.432 81.8429 271.708 86.427 271.708 86.427L266.99 84.2134C266.99 84.2134 265.957 84.9513 266.695 85.6891C267.432 86.427 271.413 87.9028 271.413 87.9028L267.874 87.7552C267.874 87.7552 266.842 88.6776 267.579 88.9358C268.317 89.1941 272.446 90.1164 272.446 90.1164C272.972 90.56 273.57 90.9095 274.215 91.1495L275.247 93.0679L279.21 91.0757L277.367 86.2702Z" fill="white"/>
<path d="M275.293 93.4922C275.211 93.4915 275.13 93.4689 275.058 93.4268C274.987 93.3847 274.928 93.3245 274.888 93.2524L273.966 91.4815C273.355 91.2487 272.786 90.9185 272.28 90.5038C271.45 90.3193 268.188 89.5814 267.487 89.3324C267.351 89.2832 267.229 89.1997 267.134 89.0899C267.038 88.9801 266.973 88.8476 266.944 88.7052C266.851 88.1149 267.469 87.5338 267.653 87.3678C267.745 87.2947 267.859 87.2556 267.976 87.2571H268.842C267.99 86.9329 267.186 86.4921 266.455 85.9473C266.317 85.8226 266.21 85.6679 266.141 85.4953C266.073 85.3226 266.044 85.1365 266.059 84.9512C266.143 84.4749 266.411 84.0509 266.805 83.7706C266.87 83.721 266.948 83.6905 267.029 83.6824C267.111 83.6742 267.193 83.6888 267.266 83.7245L269.911 84.9696C268.556 83.4109 267.054 81.52 267.054 80.7453C267.031 80.5621 267.064 80.3763 267.148 80.2119C267.231 80.0474 267.363 79.9119 267.524 79.8229C267.728 79.7659 267.943 79.7632 268.149 79.815C268.354 79.8667 268.542 79.9712 268.695 80.1181L271.459 82.7375L270.022 79.9705C270.013 79.9248 270.013 79.8778 270.022 79.8321C270.022 79.5278 269.837 78.587 270.436 78.1996C270.651 78.0999 270.89 78.0609 271.125 78.0869C271.361 78.113 271.585 78.2029 271.773 78.3471C271.811 78.3729 271.845 78.4039 271.874 78.4394L276.15 83.7521C276.18 83.7919 276.205 83.8353 276.224 83.8813L276.897 84.6099C277.295 85.0458 277.608 85.5527 277.819 86.1041L279.708 90.8727C279.752 90.9795 279.754 91.0993 279.713 91.2074C279.672 91.3155 279.591 91.4037 279.487 91.4538L275.524 93.4553C275.45 93.4817 275.372 93.4942 275.293 93.4922ZM267.856 88.493C268.621 88.7605 271.496 89.4154 272.584 89.6275C272.701 89.6517 272.804 89.7214 272.87 89.8212C273.337 90.1947 273.863 90.4877 274.427 90.6882C274.528 90.7264 274.612 90.798 274.667 90.8911L275.487 92.4223L278.676 90.8174L276.934 86.4362C276.751 85.992 276.492 85.5831 276.169 85.2279L275.376 84.3793C275.33 84.3255 275.296 84.2627 275.275 84.1949L271.146 79.0758C271.056 79.0285 270.96 78.9943 270.86 78.9743C270.824 79.1849 270.824 79.4002 270.86 79.6108L273.478 84.7114C273.528 84.8065 273.542 84.9163 273.518 85.0211C273.495 85.1259 273.435 85.2188 273.349 85.2832C273.267 85.354 273.162 85.3929 273.054 85.3929C272.946 85.3929 272.841 85.354 272.759 85.2832L268.04 80.8559L267.93 80.7822C267.93 81.354 270.114 83.9735 272.077 86.0765C272.12 86.1193 272.154 86.1703 272.178 86.2265C272.201 86.2827 272.213 86.343 272.213 86.4039C272.213 86.4648 272.201 86.5251 272.178 86.5813C272.154 86.6375 272.12 86.6885 272.077 86.7313C272.012 86.7962 271.928 86.8391 271.837 86.854C271.746 86.8689 271.653 86.855 271.57 86.8143L267.128 84.7298C267.035 84.8237 266.971 84.9421 266.944 85.0711C266.954 85.1699 267 85.2615 267.073 85.3294C268.507 86.1986 270.034 86.904 271.625 87.4323C271.728 87.4715 271.814 87.5456 271.868 87.6417C271.922 87.7378 271.94 87.8497 271.92 87.9581C271.898 88.0654 271.839 88.1615 271.753 88.2291C271.667 88.2967 271.56 88.3314 271.45 88.327L268.105 88.1887C268.009 88.2785 267.925 88.3809 267.856 88.493Z" fill="#263238"/>
<path d="M322.849 121.42L292.647 128.633C291.437 128.845 290.191 128.631 289.121 128.027C288.051 127.423 287.222 126.468 286.777 125.322L275.293 93.0396L279.256 91.0474L292.306 112.354C292.685 113.047 293.276 113.601 293.993 113.933C294.71 114.265 295.514 114.358 296.288 114.198L314.361 109.079" fill="white"/>
<path d="M291.754 129.122C290.587 129.122 289.447 128.77 288.484 128.112C287.52 127.454 286.778 126.52 286.353 125.433L274.722 92.8275L279.422 90.457L292.703 112.132C293.027 112.751 293.542 113.247 294.172 113.546C294.802 113.846 295.512 113.932 296.196 113.793L314.232 108.664L314.481 109.587L296.408 114.706C295.531 114.887 294.618 114.78 293.807 114.401C292.995 114.022 292.327 113.392 291.901 112.603L279.081 91.6745L275.865 93.2979L287.21 125.11C287.618 126.153 288.374 127.023 289.35 127.573C290.326 128.123 291.462 128.318 292.565 128.126L322.738 120.913L322.95 121.835L292.758 129.057C292.426 129.107 292.09 129.128 291.754 129.122Z" fill="#263238"/>
<path d="M279.533 105.897C279.533 105.897 288.942 123.671 292.5 124.916C296.057 126.162 303.513 123.496 303.513 123.496C303.513 123.496 293.209 122.574 296.758 122.251C300.306 121.928 304.398 122.786 311.153 121.19C317.909 119.594 321.291 116.578 319.503 119.585C317.715 122.592 307.771 124.566 304.223 125.811C300.675 127.056 292.85 129.012 290.546 128.652C289.818 128.491 289.136 128.168 288.55 127.707C287.964 127.245 287.49 126.657 287.164 125.986L279.533 105.897Z" fill="#0E73F6"/>
<path d="M281.325 94.6467L276.727 96.9512L277.037 97.5697L281.635 95.2652L281.325 94.6467Z" fill="#263238"/>
<path d="M326.047 85.5967C326.475 85.5267 326.914 85.5977 327.298 85.799C327.682 86.0003 327.99 86.321 328.176 86.7128C328.429 87.2296 328.549 87.8016 328.525 88.3768C328.501 88.9519 328.333 89.5118 328.038 90.0056C326.6 92.5328 323.181 93.4275 323.181 93.4275C323.181 93.4275 319.937 98.1131 316.729 99.3767C313.522 100.64 308.306 100.926 306.822 94.3314C306.177 91.4352 308.085 79.5738 308.085 79.5738C308.142 78.709 308.37 77.8642 308.756 77.0884C309.142 76.3126 309.678 75.6211 310.333 75.0542C312.471 73.4217 317.448 73.1173 320.296 74.0304C323.144 74.9435 324.904 77.5907 325.688 79.6291C326.193 81.1334 326.399 82.7219 326.296 84.3054L325.992 85.6336L326.047 85.5967Z" fill="white"/>
<path d="M313.089 100.557C311.987 100.576 310.897 100.319 309.919 99.8102C308.131 98.8879 306.924 97.0432 306.343 94.4329C305.679 91.4814 307.513 79.9704 307.596 79.4816C307.655 78.557 307.9 77.6538 308.317 76.8264C308.733 75.999 309.313 75.2645 310.02 74.6669C312.324 72.9145 317.494 72.6378 320.407 73.5786C323.854 74.6854 325.522 78.0427 326.075 79.4355C326.611 81.0063 326.83 82.6678 326.72 84.3239L326.545 85.1264C326.979 85.1542 327.398 85.2981 327.758 85.543C328.118 85.788 328.405 86.1251 328.591 86.5191C328.872 87.0985 329.006 87.7386 328.981 88.3824C328.955 89.0262 328.77 89.6536 328.443 90.2085C327.088 92.5698 324.195 93.5751 323.457 93.8057C322.886 94.6081 319.918 98.5927 316.859 99.7825C315.659 100.265 314.382 100.527 313.089 100.557ZM316.462 73.9659C314.223 73.9659 311.854 74.4271 310.582 75.3956C309.365 76.4581 308.619 77.961 308.509 79.5738C308.509 79.7399 306.61 91.4537 307.237 94.23C307.762 96.5728 308.813 98.1777 310.352 98.9985C312.656 100.225 315.439 99.3767 316.527 98.9524C319.596 97.7534 322.766 93.2154 322.803 93.1693L322.895 93.0309L323.061 92.9848C323.061 92.9848 326.314 92.0625 327.669 89.775C327.932 89.3469 328.081 88.8585 328.102 88.3564C328.123 87.8542 328.015 87.3551 327.789 86.9065C327.641 86.6068 327.401 86.3625 327.104 86.2097C326.807 86.0569 326.469 86.0037 326.139 86.058L325.383 86.1779L325.844 84.1856C325.921 82.6952 325.721 81.2034 325.254 79.786C324.738 78.5131 323.227 75.4417 320.149 74.4548C318.952 74.104 317.709 73.9391 316.462 73.9659Z" fill="#263238"/>
<path d="M318.498 83.9177C318.425 83.9178 318.353 83.897 318.291 83.8578C318.229 83.8186 318.18 83.7626 318.148 83.6963C317.899 83.2697 317.548 82.9116 317.127 82.654C316.705 82.3965 316.227 82.2475 315.734 82.2205C315.682 82.217 315.631 82.2032 315.584 82.18C315.537 82.1567 315.496 82.1245 315.461 82.0851C315.427 82.0456 315.401 81.9998 315.384 81.9503C315.368 81.9007 315.361 81.8483 315.365 81.7962C315.377 81.6911 315.428 81.5943 315.508 81.5257C315.589 81.4572 315.693 81.4219 315.798 81.4273C316.428 81.4645 317.038 81.6597 317.573 81.9949C318.108 82.3302 318.55 82.7948 318.858 83.3458C318.882 83.3906 318.897 83.4398 318.903 83.4904C318.908 83.5411 318.903 83.5924 318.889 83.6412C318.874 83.6901 318.85 83.7355 318.818 83.7751C318.786 83.8146 318.746 83.8474 318.701 83.8715C318.639 83.9056 318.569 83.9216 318.498 83.9177Z" fill="#263238"/>
<path d="M309.117 82.8481C309.009 82.8475 308.906 82.8044 308.831 82.7282C308.794 82.6913 308.764 82.6475 308.744 82.5992C308.724 82.5509 308.714 82.4991 308.714 82.4468C308.714 82.3945 308.724 82.3428 308.744 82.2945C308.764 82.2462 308.794 82.2024 308.831 82.1655C309.24 81.7433 309.77 81.4582 310.347 81.3492C310.925 81.2402 311.522 81.3127 312.056 81.5567C312.102 81.5826 312.142 81.6172 312.174 81.6586C312.206 81.7 312.23 81.7474 312.244 81.798C312.257 81.8486 312.261 81.9015 312.254 81.9535C312.247 82.0055 312.23 82.0556 312.204 82.1009C312.157 82.1861 312.08 82.2504 311.988 82.2812C311.895 82.312 311.795 82.3069 311.706 82.267C311.316 82.0991 310.884 82.0542 310.467 82.1383C310.051 82.2223 309.67 82.4313 309.375 82.7374C309.305 82.8053 309.213 82.8448 309.117 82.8481Z" fill="#263238"/>
<path d="M312.481 89.5813C312.139 89.5729 311.808 89.4595 311.533 89.2566C311.258 89.0537 311.051 88.771 310.942 88.4468C310.785 87.8289 311.2 87.3954 311.568 87.0172C311.861 86.7758 312.078 86.4558 312.195 86.0949C312.389 85.1725 312.628 83.4754 312.628 83.4662C312.636 83.4141 312.653 83.364 312.68 83.3186C312.706 83.2733 312.742 83.2337 312.783 83.202C312.825 83.1703 312.873 83.1472 312.924 83.134C312.975 83.1207 313.028 83.1177 313.08 83.1249C313.132 83.1322 313.182 83.1497 313.227 83.1763C313.273 83.2029 313.312 83.2383 313.344 83.2802C313.376 83.3222 313.399 83.37 313.412 83.4209C313.425 83.4718 313.428 83.5248 313.421 83.5769C313.421 83.6507 313.172 85.274 312.969 86.2517C312.832 86.7651 312.543 87.225 312.14 87.5706C311.817 87.9027 311.67 88.0687 311.707 88.2347C311.827 88.7051 312.536 88.7697 312.536 88.7789C312.588 88.7824 312.639 88.7962 312.686 88.8194C312.733 88.8427 312.774 88.8749 312.809 88.9143C312.843 88.9538 312.869 88.9996 312.885 89.0491C312.902 89.0987 312.909 89.1511 312.905 89.2032C312.902 89.2553 312.89 89.3064 312.868 89.3536C312.846 89.4008 312.814 89.4432 312.776 89.4783C312.737 89.5135 312.692 89.5406 312.643 89.5583C312.594 89.576 312.542 89.5838 312.49 89.5813H312.481Z" fill="#263238"/>
<path d="M314.508 92.8273C314.124 92.8278 313.742 92.7718 313.375 92.6613C313.325 92.6456 313.279 92.6202 313.239 92.5867C313.199 92.5531 313.167 92.512 313.143 92.4658C313.119 92.4195 313.104 92.369 313.1 92.3171C313.095 92.2652 313.101 92.2129 313.117 92.1632C313.15 92.0622 313.223 91.9786 313.317 91.9302C313.412 91.8819 313.522 91.8729 313.624 91.905C313.979 92.0189 314.354 92.0556 314.724 92.0127C315.094 91.9697 315.451 91.8481 315.771 91.6559C315.813 91.6244 315.86 91.6015 315.911 91.5884C315.961 91.5753 316.014 91.5723 316.066 91.5796C316.118 91.5868 316.168 91.6042 316.213 91.6308C316.258 91.6574 316.297 91.6925 316.328 91.7343C316.36 91.7761 316.383 91.8237 316.396 91.8744C316.409 91.925 316.412 91.9778 316.405 92.0296C316.397 92.0814 316.38 92.1313 316.354 92.1764C316.327 92.2215 316.292 92.2609 316.25 92.2924C315.741 92.6514 315.131 92.8388 314.508 92.8273Z" fill="#263238"/>
<path d="M322.821 71.2627C322.821 71.2627 318.858 67.8315 315.07 67.8315C311.282 67.8315 308.232 69.9991 305.854 70.1743C303.476 70.3496 301.891 68.1913 300.444 71.0967C298.997 74.0021 304.407 78.8445 308.011 79.5731C311.614 80.3018 316.655 79.2134 318.102 79.0289C319.48 78.9275 320.863 78.9275 322.24 79.0289C322.24 79.0289 321.162 82.4508 322.24 83.5392C322.622 83.8406 322.934 84.2224 323.152 84.6576C323.37 85.0927 323.49 85.5706 323.503 86.0573C323.568 86.8456 323.688 87.6285 323.862 88.4L324.941 88.7598L325.484 86.7767C326.945 85.2181 327.941 83.2821 328.36 81.1872C328.904 77.9498 326.203 74.7308 326.203 74.7308L322.821 71.2627Z" fill="#263238"/>
<path d="M311.835 78.6143C310.422 78.6145 309.011 78.5035 307.614 78.2822C307.565 78.2732 307.52 78.245 307.491 78.2036C307.462 78.1622 307.45 78.111 307.458 78.0609C307.46 78.0357 307.467 78.0113 307.479 77.9891C307.491 77.9669 307.508 77.9474 307.528 77.9319C307.548 77.9163 307.571 77.905 307.595 77.8986C307.619 77.8922 307.645 77.891 307.67 77.8948C307.725 77.8948 313.826 79.0294 318.536 77.074C319.817 76.5482 320.545 75.838 320.711 74.9525C321.033 73.2554 319.162 71.4291 319.144 71.4107C319.124 71.3925 319.108 71.3704 319.097 71.3458C319.086 71.3212 319.081 71.2946 319.081 71.2677C319.081 71.2408 319.086 71.2142 319.097 71.1896C319.108 71.165 319.124 71.1429 319.144 71.1247C319.183 71.0891 319.234 71.0693 319.287 71.0693C319.339 71.0693 319.39 71.0891 319.43 71.1247C319.512 71.1985 321.475 73.117 321.107 75.0263C320.95 75.6032 320.645 76.1293 320.223 76.553C319.802 76.9766 319.277 77.2833 318.701 77.4429C316.508 78.2654 314.178 78.6629 311.835 78.6143Z" fill="white"/>
<path d="M321.604 79.1122C321.555 79.1127 321.507 79.0951 321.47 79.0629C321.433 79.0306 321.408 78.9859 321.402 78.937C321.396 78.8845 321.412 78.8321 321.445 78.7908C321.477 78.7495 321.525 78.7225 321.577 78.7156C321.641 78.7156 323.134 78.5219 323.908 76.3544C324.005 75.9716 324.013 75.5721 323.933 75.1855C323.854 74.799 323.688 74.4356 323.448 74.1223C322.655 72.8728 321.562 71.8422 320.268 71.1246C320.214 71.1246 320.163 71.1033 320.125 71.0652C320.087 71.0272 320.065 70.9755 320.065 70.9217C320.065 70.8704 320.086 70.8211 320.122 70.7848C320.158 70.7484 320.208 70.728 320.259 70.728C320.683 70.728 322.48 72.0378 323.549 73.5597C323.9 73.9506 324.149 74.4214 324.276 74.931C324.403 75.4407 324.403 75.9737 324.277 76.4835C323.411 78.9093 321.687 79.1122 321.614 79.1122H321.604Z" fill="white"/>
<path d="M178.584 107.844H175.056V107.2H182.826V107.844H179.298V117H178.584V107.844ZM186.427 109.636C187.332 109.636 188.027 109.869 188.513 110.336C188.998 110.793 189.241 111.47 189.241 112.366V117H188.569V115.698C188.335 116.127 187.995 116.463 187.547 116.706C187.099 116.939 186.562 117.056 185.937 117.056C185.125 117.056 184.481 116.865 184.005 116.482C183.538 116.099 183.305 115.595 183.305 114.97C183.305 114.363 183.519 113.873 183.949 113.5C184.387 113.117 185.083 112.926 186.035 112.926H188.541V112.338C188.541 111.657 188.354 111.139 187.981 110.784C187.617 110.429 187.08 110.252 186.371 110.252C185.885 110.252 185.419 110.336 184.971 110.504C184.532 110.672 184.159 110.896 183.851 111.176L183.501 110.672C183.865 110.345 184.303 110.093 184.817 109.916C185.33 109.729 185.867 109.636 186.427 109.636ZM186.035 116.482C186.641 116.482 187.155 116.342 187.575 116.062C188.004 115.782 188.326 115.376 188.541 114.844V113.472H186.049C185.33 113.472 184.807 113.603 184.481 113.864C184.163 114.125 184.005 114.485 184.005 114.942C184.005 115.418 184.182 115.796 184.537 116.076C184.891 116.347 185.391 116.482 186.035 116.482ZM194.729 113.094L192.825 114.83V117H192.125V106.612H192.825V113.962L197.501 109.692H198.397L195.247 112.646L198.705 117H197.837L194.729 113.094ZM200.355 106.612H201.055V117H200.355V106.612ZM204.005 109.692H204.705V117H204.005V109.692ZM204.355 107.914C204.197 107.914 204.061 107.863 203.949 107.76C203.837 107.648 203.781 107.513 203.781 107.354C203.781 107.195 203.837 107.06 203.949 106.948C204.061 106.836 204.197 106.78 204.355 106.78C204.514 106.78 204.649 106.836 204.761 106.948C204.873 107.051 204.929 107.181 204.929 107.34C204.929 107.499 204.873 107.634 204.761 107.746C204.649 107.858 204.514 107.914 204.355 107.914ZM209.854 107.158C208.939 107.158 208.482 107.648 208.482 108.628V109.692H210.82V110.294H208.496V117H207.796V110.294H206.452V109.692H207.796V108.572C207.796 107.956 207.973 107.466 208.328 107.102C208.683 106.738 209.182 106.556 209.826 106.556C210.106 106.556 210.372 106.598 210.624 106.682C210.885 106.757 211.1 106.873 211.268 107.032L210.988 107.564C210.689 107.293 210.311 107.158 209.854 107.158Z" fill="#263238"/>
</g>
<defs>
<clipPath id="clip0_4111_26303">
<rect width="386.75" height="280" fill="white" transform="translate(0.125)"/>
</clipPath>
</defs>
</svg>
