<svg width="203" height="30" viewBox="0 0 203 30" fill="none" xmlns="http://www.w3.org/2000/svg">
<path d="M4.87241 6.5415L0.892011 8.32582C0.342991 8.5317 0.0684814 9.08072 0.0684814 9.62974C0.0684814 10.1788 0.411619 10.7278 0.892011 10.9337L3.84299 12.2376L10.7057 9.14935L4.87241 6.5415Z" fill="#4E7BAB"/>
<path d="M13.451 10.5222L6.65686 13.5418L10.2255 15.1203L16.8824 12.032L13.451 10.5222Z" fill="#4E7BAB"/>
<path d="M19.6274 13.4045L13.0392 16.4242L19.0098 19.1006C19.2157 19.1693 19.4215 19.2379 19.6274 19.2379C19.8333 19.2379 20.0392 19.1693 20.2451 19.1006L26.2843 16.4242L19.6274 13.4045Z" fill="#4E7BAB"/>
<path d="M16.8137 6.47308L13.451 7.98288L7.61761 5.30641L10.9117 3.86523L16.8137 6.47308Z" fill="#4E7BAB"/>
<path d="M22.9902 9.2869L19.6275 10.8653L16.2647 9.2869L19.6275 7.7771L22.9902 9.2869Z" fill="#4E7BAB"/>
<path d="M25.7353 10.5222L22.304 12.1006L28.8922 15.1203L32.4608 13.5418L25.7353 10.5222Z" fill="#4E7BAB"/>
<path d="M25.4608 2.6299L19.5589 5.23775L13.7255 2.56128L19.0098 0.227941C19.353 0.0906863 19.8334 0.0906863 20.1765 0.227941L25.4608 2.6299Z" fill="#4E7BAB"/>
<path d="M31.5688 5.30641L25.7355 7.98288L22.4413 6.47308L28.3433 3.86523L31.5688 5.30641Z" fill="#4E7BAB"/>
<path d="M39.1175 9.62974C39.1175 10.1788 38.7743 10.7278 38.2939 10.9337L35.343 12.2376L28.5488 9.21798L34.3822 6.5415L38.3626 8.32582C38.7743 8.60033 39.1175 9.08072 39.1175 9.62974Z" fill="#4E7BAB"/>
<path d="M38.2941 13.6104L37.8824 13.4045L20.1765 21.3653C19.9706 21.434 19.7647 21.5026 19.5588 21.5026C19.353 21.5026 19.1471 21.434 18.9412 21.3653L1.30392 13.4732L0.82353 13.6791C0.343138 13.8849 0 14.434 0 14.983C0 15.532 0.343138 16.081 0.82353 16.2869L19.0098 24.3849C19.2157 24.4536 19.4216 24.5222 19.6275 24.5222C19.8333 24.5222 20.0392 24.4536 20.2451 24.3849L38.2941 16.2869C38.7745 16.081 39.1177 15.532 39.1177 14.983C39.1177 14.3653 38.7745 13.8849 38.2941 13.6104Z" fill="#4E7BAB"/>
<path d="M38.294 19.0318L37.8136 18.826L20.1763 26.7181C19.9705 26.7867 19.7646 26.8554 19.5587 26.8554C19.3528 26.8554 19.1469 26.7867 18.9411 26.7181L1.3724 18.7573L0.892012 19.0318C0.411619 19.2377 0.0684814 19.7867 0.0684814 20.3358C0.0684814 20.8848 0.411619 21.4338 0.892012 21.6397L19.0097 29.7377C19.2156 29.8064 19.4214 29.875 19.6273 29.875C19.8332 29.875 20.0391 29.8064 20.245 29.7377L38.3626 21.5711C38.843 21.3652 39.1862 20.8161 39.1862 20.2671C39.1862 19.7181 38.7744 19.2377 38.294 19.0318Z" fill="#4E7BAB"/>
<path d="M48.2336 8.7869L52.5413 16.2112V20.6287H54.6807V16.2112L58.9884 8.7869H56.5656L53.6688 14.0255H53.5532L50.6563 8.7869H48.2336Z" fill="#6B6966"/>
<path d="M60.4099 20.6287H68.158V18.8305H62.5551V15.5983H67.7128V13.8H62.5551V10.5851H68.1117V8.7869H60.4099V20.6287Z" fill="#6B6966"/>
<path d="M70.2026 20.6287H72.3478V16.2921H74.5334L76.8578 20.6287H79.2516L76.6901 15.9336C78.0836 15.3728 78.818 14.1816 78.818 12.5742C78.818 10.3134 77.3609 8.7869 74.6433 8.7869H70.2026V20.6287ZM72.3478 14.5112V10.5794H74.3137C75.9153 10.5794 76.6323 11.3137 76.6323 12.5742C76.6323 13.8347 75.9153 14.5112 74.3252 14.5112H72.3478Z" fill="#6B6966"/>
<path d="M80.6949 20.6287H88.4429V18.8305H82.8401V15.5983H87.9977V13.8H82.8401V10.5851H88.3967V8.7869H80.6949V20.6287Z" fill="#6B6966"/>
<path d="M90.4875 20.6287H97.8482V18.8305H92.6327V8.7869H90.4875V20.6287Z" fill="#6B6966"/>
<path d="M99.6124 20.6287H107.36V18.8305H101.758V15.5983H106.915V13.8H101.758V10.5851H107.314V8.7869H99.6124V20.6287Z" fill="#6B6966"/>
<path d="M109.405 20.6287H111.55V17.1016L112.863 15.552L116.396 20.6287H118.974L114.355 14.1007L118.934 8.7869H116.315L111.695 14.2279H111.55V8.7869H109.405V20.6287Z" fill="#6B6966"/>
<path d="M119.806 10.5851H123.466V20.6287H125.594V10.5851H129.254V8.7869H119.806V10.5851Z" fill="#6B6966"/>
<path d="M130.978 20.6287H133.123V16.2921H135.309L137.633 20.6287H140.027L137.465 15.9336C138.859 15.3728 139.593 14.1816 139.593 12.5742C139.593 10.3134 138.136 8.7869 135.419 8.7869H130.978V20.6287ZM133.123 14.5112V10.5794H135.089C136.691 10.5794 137.408 11.3137 137.408 12.5742C137.408 13.8347 136.691 14.5112 135.101 14.5112H133.123Z" fill="#6B6966"/>
<path d="M152.052 14.7078C152.052 10.88 149.716 8.625 146.611 8.625C143.5 8.625 141.17 10.88 141.17 14.7078C141.17 18.5298 143.5 20.7906 146.611 20.7906C149.716 20.7906 152.052 18.5356 152.052 14.7078ZM149.895 14.7078C149.895 17.4023 148.542 18.8652 146.611 18.8652C144.685 18.8652 143.326 17.4023 143.326 14.7078C143.326 12.0133 144.685 10.5505 146.611 10.5505C148.542 10.5505 149.895 12.0133 149.895 14.7078Z" fill="#6B6966"/>
<path d="M163.713 8.7869H161.58V16.8588H161.476L155.902 8.7869H153.982V20.6287H156.127V12.5626H156.225L161.805 20.6287H163.713V8.7869Z" fill="#6B6966"/>
<path d="M174.503 20.6287L175.48 17.7087H179.932L180.915 20.6287H183.205L179.03 8.78687H176.382L172.213 20.6287H174.503ZM176.058 15.9856L177.66 11.2154H177.753L179.354 15.9856H176.058Z" fill="#6B6966"/>
<path d="M182.716 10.5851H186.376V20.6287H188.504V10.5851H192.164V8.78687H182.716V10.5851Z" fill="#6B6966"/>
<path d="M193.367 10.5851H197.027V20.6287H199.155V10.5851H202.815V8.78687H193.367V10.5851Z" fill="#6B6966"/>
</svg>
