<svg width="20" height="20" viewBox="0 0 20 20" fill="none" xmlns="http://www.w3.org/2000/svg">
<path d="M9.9915 1.66663C5.3915 1.66663 1.6665 5.39996 1.6665 9.99996C1.6665 14.6 5.3915 18.3333 9.9915 18.3333C14.5998 18.3333 18.3332 14.6 18.3332 9.99996C18.3332 5.39996 14.5998 1.66663 9.9915 1.66663ZM9.99984 16.6666C6.3165 16.6666 3.33317 13.6833 3.33317 9.99996C3.33317 6.31663 6.3165 3.33329 9.99984 3.33329C13.6832 3.33329 16.6665 6.31663 16.6665 9.99996C16.6665 13.6833 13.6832 16.6666 9.99984 16.6666ZM9.8165 5.83329H9.7665C9.43317 5.83329 9.1665 6.09996 9.1665 6.43329V10.3666C9.1665 10.6583 9.3165 10.9333 9.57484 11.0833L13.0332 13.1583C13.3165 13.325 13.6832 13.2416 13.8498 12.9583C14.0248 12.675 13.9332 12.3 13.6415 12.1333L10.4165 10.2166V6.43329C10.4165 6.09996 10.1498 5.83329 9.8165 5.83329Z" fill="black" fill-opacity="0.4"/>
</svg>
