<svg width="16" height="16" viewBox="0 0 16 16" fill="none" xmlns="http://www.w3.org/2000/svg">
<path d="M8.00016 1.33337C4.3135 1.33337 1.3335 4.31337 1.3335 8.00004C1.3335 11.6867 4.3135 14.6667 8.00016 14.6667C11.6868 14.6667 14.6668 11.6867 14.6668 8.00004C14.6668 4.31337 11.6868 1.33337 8.00016 1.33337ZM10.8668 10.8667C10.6068 11.1267 10.1868 11.1267 9.92683 10.8667L8.00016 8.94004L6.0735 10.8667C5.8135 11.1267 5.3935 11.1267 5.1335 10.8667C4.8735 10.6067 4.8735 10.1867 5.1335 9.92671L7.06016 8.00004L5.1335 6.07337C4.8735 5.81337 4.8735 5.39337 5.1335 5.13337C5.3935 4.87337 5.8135 4.87337 6.0735 5.13337L8.00016 7.06004L9.92683 5.13337C10.1868 4.87337 10.6068 4.87337 10.8668 5.13337C11.1268 5.39337 11.1268 5.81337 10.8668 6.07337L8.94016 8.00004L10.8668 9.92671C11.1202 10.18 11.1202 10.6067 10.8668 10.8667Z" fill="white"/>
</svg>
